<?xml version="1.0" encoding="UTF-8" standalone="no"?>
<svg
   version="1.0"
   width="1024.000000pt"
   height="442.000000pt"
   viewBox="0 0 1024.000000 442.000000"
   preserveAspectRatio="xMidYMid meet"
   id="svg14"
   sodipodi:docname="logo.svg"
   xml:space="preserve"
   inkscape:version="1.4 (86a8ad7, 2024-10-11)"
   inkscape:export-filename="3947a22b-a942-4950-adcc-5d2586c08a9d.svg"
   inkscape:export-xdpi="96.168106"
   inkscape:export-ydpi="96.168106"
   xmlns:inkscape="http://www.inkscape.org/namespaces/inkscape"
   xmlns:sodipodi="http://sodipodi.sourceforge.net/DTD/sodipodi-0.dtd"
   xmlns="http://www.w3.org/2000/svg"
   xmlns:svg="http://www.w3.org/2000/svg"><defs
     id="defs14" /><sodipodi:namedview
     id="namedview14"
     pagecolor="#ffffff"
     bordercolor="#000000"
     borderopacity="0.25"
     inkscape:showpageshadow="2"
     inkscape:pageopacity="0.0"
     inkscape:pagecheckerboard="0"
     inkscape:deskcolor="#d1d1d1"
     inkscape:document-units="pt"
     showgrid="false"
     inkscape:zoom="0.81103215"
     inkscape:cx="549.30005"
     inkscape:cy="448.19432"
     inkscape:window-width="1920"
     inkscape:window-height="1001"
     inkscape:window-x="-9"
     inkscape:window-y="-9"
     inkscape:window-maximized="1"
     inkscape:current-layer="svg14"
     showguides="true" /><path
     style="fill:#ffffff;stroke:#ffffff;stroke-width:27.9609;stroke-linecap:round;stroke-linejoin:round;paint-order:stroke fill markers"
     d="m 362.50105,254.5333 c -7.95454,-2.99434 -8.59959,-5.25231 -9.66171,-33.82072 -1.80048,-48.42833 -3.05757,-98.36948 -2.49036,-98.93669 0.96362,-0.96362 19.18746,-2.0153 61.16368,-3.52973 21.87029,-0.78904 67.85336,-2.6685 102.18461,-4.17657 34.33125,-1.50807 63.5502,-2.74386 64.93098,-2.74618 1.48146,-0.002 2.8785,0.68337 3.40825,1.67322 0.90848,1.6975 5.52172,90.8496 5.89848,113.98978 0.23654,14.52769 -0.40328,16.52093 -6.18889,19.28012 -5.52203,2.63351 -5.64458,2.64025 -118.44756,6.52349 -76.04258,2.61776 -97.48908,2.98867 -100.79748,1.74328 z m 131.26423,-28.45728 c 4.04144,-1.07508 10.90769,-3.67715 15.25833,-5.78239 17.67692,-8.55372 29.804,-27.59415 21.65678,-34.00276 -2.66625,-2.09727 -7.31346,-2.49066 -10.77753,-0.91233 -1.21229,0.55235 -3.73372,3.6637 -5.60318,6.91409 -7.0648,12.28341 -23.74108,20.74881 -40.8738,20.74881 -12.49816,0 -27.85316,-4.72101 -33.89844,-10.42233 -1.37604,-1.29774 -3.98209,-4.67346 -5.79123,-7.5016 -1.80914,-2.82814 -4.08906,-5.57006 -5.06648,-6.09317 -3.98336,-2.13182 -12.03275,-0.17063 -13.34601,3.2517 -1.67114,4.35492 0.73864,11.51039 5.82881,17.30777 6.09561,6.94253 21.39749,14.73904 34.74802,17.70456 9.0993,2.02121 27.98174,1.41663 37.86473,-1.21235 z m -47.13862,-51.62691 c 7.9418,-5.86436 8.40568,-20.39555 0.86252,-27.01853 -8.27684,-7.26717 -18.86869,0.1009 -18.86869,13.12574 0,12.25248 9.8918,19.88457 18.00617,13.89279 z m 68.94003,-2.82365 c 4.61528,-4.61529 6.13636,-9.97017 4.74998,-16.72212 -1.2622,-6.14717 -4.64197,-10.72713 -8.97017,-12.15556 -8.74185,-2.88507 -16.14418,4.50477 -16.14418,16.11694 0,9.76002 5.06337,16.26206 12.66383,16.26206 3.62657,0 4.67669,-0.47747 7.70054,-3.50132 z"
     id="path1" /><path
     style="fill:#1669a5;fill-opacity:1;stroke:#320202;stroke-width:0;paint-order:stroke fill markers"
     d="m 27.725787,447.12946 c -2.255103,-0.90988 -4.640669,-2.52885 -5.301263,-3.59768 -1.59383,-2.57889 -6.752576,-107.3175 -6.793731,-137.93411 -0.02343,-17.39755 0.653543,-24.67691 2.432065,-26.15296 7.92541,-6.5775 52.087664,-8.78584 70.229587,-3.51185 17.424935,5.06556 29.552345,19.30305 31.661385,37.1702 1.53676,13.0191 -1.86521,23.14269 -10.66426,31.73476 l -7.57603,7.39778 8.28357,6.32497 c 17.13334,13.08228 22.79458,35.88727 13.68982,55.14637 -5.65172,11.95501 -12.59031,18.51562 -25.996041,24.57995 -19.517294,8.82902 -57.95764,13.68731 -69.965102,8.84257 z M 77.293272,410.60998 C 97.829729,400.05915 96.115706,381.92181 73.973878,375.485 66.327264,373.26207 62.577404,373.04002 58.548936,374.57166 l -5.32236,2.02354 1.260477,16.39825 c 0.693255,9.01904 1.727796,17.15439 2.298975,18.07858 1.481376,2.39693 15.559873,2.07973 20.507244,-0.46205 z M 65.653707,340.12149 c 3.904967,-1.08451 9.703942,-4.16297 12.88661,-6.84101 4.823904,-4.05903 5.78668,-6.26297 5.78668,-13.24652 0,-10.24627 -4.978828,-14.31444 -19.189944,-15.67994 -12.795781,-1.22951 -15.174374,1.09762 -15.174374,14.8462 0,22.84089 1.513436,24.85878 15.691028,20.92127 z"
     id="path28" /><path
     style="fill:#229a47;fill-opacity:1;stroke:#1669a5;stroke-width:0;stroke-opacity:1;paint-order:stroke fill markers"
     d="m 145.41909,443.50029 -4.77281,-1.32668 -0.4729,-46.68852 c -0.26008,-25.67867 0.16947,-60.3984 0.95457,-77.15493 l 1.42745,-30.46644 8.59108,-2.53991 c 4.72509,-1.39694 15.67844,-3.06379 24.34076,-3.7041 38.80692,-2.86863 63.85736,15.7393 64.04947,47.5771 0.088,14.58565 -7.76001,30.25777 -19.68144,39.30292 -4.71418,3.57677 -8.80748,7.11448 -9.0962,7.86155 -0.28874,0.74706 6.36645,11.60323 14.78929,24.12479 8.42286,12.5216 15.31717,24.2076 15.32072,25.96892 0.0132,6.55845 -22.51372,19.08274 -28.31736,15.74361 -1.74725,-1.00527 -9.19059,-14.04246 -16.54072,-28.97153 -11.25637,-22.86309 -14.04132,-27.14838 -17.65943,-27.17312 -4.23853,-0.0291 -4.29593,0.30639 -4.32478,25.26659 -0.016,13.91277 -0.7495,26.43195 -1.62984,27.82043 -1.56645,2.47059 -13.66441,6.1177 -19.34134,5.83075 -1.57503,-0.0796 -5.01146,-0.74177 -7.63652,-1.47143 z m 49.36049,-94.56052 c 11.00158,-5.68916 13.11439,-21.0091 4.13571,-29.9878 -4.96938,-4.96939 -6.8359,-5.61317 -14.79575,-5.10324 l -9.10896,0.58354 -0.57009,14.29598 c -0.81299,20.38697 0.11241,22.93202 8.33779,22.93202 3.70721,0 9.1078,-1.22422 12.0013,-2.7205 z"
     id="path29" /><path
     style="fill:#df472d;fill-opacity:1;stroke:#1669a5;stroke-width:0;stroke-opacity:1;paint-order:stroke fill markers"
     d="m 273.86343,435.03422 c -20.17416,-9.16145 -30.69078,-29.76125 -30.72055,-60.17479 -0.0279,-28.55421 10.46167,-61.22312 23.4162,-72.92764 15.48201,-13.9881 41.23954,-16.67969 59.1536,-6.18136 35.19963,20.62835 38.8797,99.56077 6.06778,130.14563 -15.29504,14.25693 -38.56145,17.92791 -57.91703,9.13816 z m 40.12202,-37.29852 c 9.16393,-8.2583 12.92788,-35.59777 7.50441,-54.50834 -3.34471,-11.66229 -12.80333,-21.82415 -20.31386,-21.82415 -18.84874,0 -32.46784,43.25223 -21.71928,68.97719 6.10099,14.60165 22.59003,18.11415 34.52873,7.3553 z"
     id="path30" /><path
     style="fill:#f2af2f;fill-opacity:1;stroke:#1669a5;stroke-width:0;stroke-opacity:1;paint-order:stroke fill markers"
     d="m 454.39027,440.99319 c -7.14079,-1.37494 -9.55155,-5.48596 -13.92318,-23.74299 -9.81679,-40.99752 -10.20448,-41.12963 -20.43114,-6.96255 -3.70751,12.38675 -8.121,24.18423 -9.8077,26.2166 -3.83665,4.62288 -21.45258,4.82805 -27.50198,0.32033 -3.36696,-2.50889 -7.369,-19.90828 -15.59636,-67.80707 -6.08698,-35.4377 -10.05217,-65.38295 -8.81151,-66.54502 1.24066,-1.16207 7.11558,-2.89958 13.0554,-3.86113 16.4476,-2.66259 18.73554,0.77275 23.78804,35.71786 6.20357,42.9063 7.73068,44.26613 17.07188,15.20174 l 7.73855,-24.07788 9.78887,-0.81795 c 12.50894,-1.0452 17.38439,3.81519 19.76742,19.70638 2.63082,17.54348 8.59569,33.44871 10.63579,28.36009 0.89301,-2.22744 4.66702,-17.89571 8.38671,-34.81839 7.0178,-31.92742 9.80632,-38.08969 17.22474,-38.06427 8.96182,0.0309 24.64363,5.74783 24.64363,8.98432 0,6.92021 -32.73072,127.19277 -35.53279,130.56905 -2.88369,3.47466 -8.54403,3.92228 -20.49637,1.62088 z"
     id="path31" /><path
     style="fill:#229a47;fill-opacity:1;stroke:#1669a5;stroke-width:0;stroke-opacity:1;paint-order:stroke fill markers"
     d="m 533.33965,439.45895 c -27.25164,-11.09452 -33.14087,-20.77848 -21.73243,-35.73571 8.78915,-11.52314 13.00102,-11.7471 24.8739,-1.32257 10.17931,8.93755 19.89367,10.35714 26.39381,3.85702 8.85544,-8.85544 3.72646,-16.85138 -24.88352,-38.7928 -15.31508,-11.74536 -23.17326,-27.21086 -21.47623,-42.26689 2.95468,-26.21381 24.938,-43.99496 50.12421,-40.54279 12.35408,1.6933 31.79407,11.38703 38.11883,19.00787 5.04102,6.07407 1.42734,16.46876 -8.07844,23.23747 l -8.22378,5.85584 -10.13933,-7.02654 c -11.16382,-7.73654 -16.5571,-8.68826 -21.4587,-3.78667 -6.46925,6.46926 -2.99274,13.06275 13.87826,26.32116 30.25192,23.77405 39.0978,43.18079 30.24662,66.35729 -7.03376,18.4176 -19.49006,26.62982 -41.667,27.47028 -9.81607,0.37202 -21.50535,-0.81282 -25.9762,-2.63296 z"
     id="path32" /><path
     style="fill:#df472d;fill-opacity:1;stroke:#1669a5;stroke-width:0;stroke-opacity:1;paint-order:stroke fill markers"
     d="m 617.21138,438.81188 c -3.69861,-4.45654 -2.58225,-48.02236 3.28296,-128.11658 l 1.25226,-17.10086 7.56285,-1.56715 c 4.15958,-0.86195 18.33485,-1.32808 31.50061,-1.03587 l 23.93778,0.53132 6.15134,0.7519 c 6.16213,0.75322 5.16635,11.02174 4.22786,17.62833 -0.85272,6.58289 -0.83057,11.53347 -2.36873,12.81002 -1.36936,1.13647 -10.60476,2.31555 -20.52313,2.62017 l -18.03337,0.55389 -1.1893,8.59107 c -1.88518,13.61813 -0.26793,15.03264 17.92023,15.67352 l 15.72423,0.55407 0.57272,12.09874 c 0.32103,6.78243 -0.33826,13.19638 -1.50043,14.5967 -1.28841,1.55245 -7.85888,2.76072 -17.35823,3.19211 -10.8837,0.49427 -15.80319,1.51363 -17.08434,3.54002 -2.43223,3.84706 -2.32654,14.63025 0.18949,19.33149 1.90156,3.55307 3.25906,3.73047 19.07755,2.49302 19.3999,-1.51763 22.7977,-0.1124 22.76419,9.41477 -0.0388,11.02232 -2.38632,20.42164 -5.51914,22.09829 -1.7093,0.91478 -17.71752,2.28138 -35.57384,3.03692 -28.58342,1.20942 -32.77071,1.0066 -35.01356,-1.69589 z"
     id="path33"
     sodipodi:nodetypes="sscsscsssscsscssssssssss" /><path
     style="fill:#1669a5;fill-opacity:1;stroke:#1669a5;stroke-width:0;stroke-opacity:1;paint-order:stroke fill markers"
     d="m 706.83243,439.72236 c -1.27037,-2.37373 -1.30871,-18.58129 -0.11401,-48.20549 0.98993,-24.54618 1.83409,-57.51603 1.87592,-73.26634 0.0419,-15.7503 0.75172,-29.70075 1.57752,-31.00098 3.83774,-6.04254 44.19348,-8.31815 60.6175,-3.41815 35.84849,10.69511 46.0086,59.41948 18.14306,87.00791 -5.29411,5.24146 -7.27993,8.59409 -6.45636,10.90022 0.65419,1.83176 6.68057,12.9746 13.39195,24.76183 9.86225,17.32109 11.83141,22.1248 10.26745,25.04709 -2.27186,4.245 -12.98456,9.6839 -21.93453,11.13629 -7.91158,1.28388 -10.48919,-2.0568 -23.0953,-29.93236 -10.08259,-22.2953 -12.29398,-25.47289 -16.58226,-23.82731 -2.36781,0.9086 -3.12882,5.79907 -3.86133,24.81397 -0.58452,15.17319 -1.78856,24.73815 -3.35108,26.62086 -1.76059,2.12137 -6.07137,2.93853 -15.50174,2.93853 -10.81416,0 -13.39244,-0.61561 -14.97681,-3.57607 z m 55.33692,-89.38048 c 11.64358,-6.87803 12.33113,-24.40867 1.22644,-31.27079 -3.74574,-2.31466 -8.68065,-3.56929 -12.78302,-3.24992 l -6.68194,0.52023 -0.55964,16.06801 c -0.30779,8.8374 -0.12,17.21371 0.41736,18.61401 1.36735,3.56324 11.85316,3.17443 18.3808,-0.68154 z"
     id="path34" /><path
     style="fill:#f2af2f;fill-opacity:1;stroke:#1669a5;stroke-width:0;stroke-opacity:1;paint-order:stroke fill markers"
     d="m 844.90012,440.88326 c -9.83637,-3.9029 -19.21241,-11.30994 -24.35412,-19.23962 -9.83056,-15.16097 -10.46774,-31.08831 -3.9454,-98.62028 2.37249,-24.56445 3.15459,-28.07756 6.94403,-31.19102 3.50969,-2.88362 6.11969,-3.2776 14.65135,-2.21164 13.08603,1.63499 14.93973,2.37008 15.96157,6.32964 0.45546,1.7649 -0.71944,15.66598 -2.61081,30.89128 -4.36059,35.10092 -4.62549,63.05581 -0.67005,70.70489 3.17487,6.13948 11.15881,9.25233 16.0111,6.24253 1.67503,-1.03897 4.10419,-4.04299 5.39831,-6.67556 3.13864,-6.38536 6.20173,-42.43711 6.22199,-73.23102 0.0117,-16.81233 0.76124,-25.65912 2.30719,-27.20508 3.4152,-3.41518 23.42209,-2.9503 26.37943,0.61294 3.61466,4.3555 1.41916,99.54974 -2.59022,112.30638 -6.88338,21.9006 -19.37638,31.87148 -41.35317,33.00446 -6.95748,0.35868 -15.01981,-0.39605 -18.3512,-1.7179 z"
     id="path35" /><path
     style="fill:#209844;fill-opacity:1;stroke:#1669a5;stroke-width:0;stroke-opacity:1;paint-order:stroke fill markers"
     d="m 947.15859,442.72565 c -4.77699,-1.35342 -11.80455,-4.38848 -15.61685,-6.74458 -7.41472,-4.5826 -18.65311,-16.37433 -18.65311,-19.57167 0,-6.73239 15.89548,-24.65744 21.86564,-24.65744 1.45288,0 6.18475,3.40442 10.51547,7.56533 9.41961,9.0504 18.78285,11.55751 25.85576,6.92319 10.07827,-6.60352 3.85291,-16.23775 -28.41379,-43.9729 -14.75925,-12.68649 -20.17168,-22.22528 -20.23551,-35.66322 -0.0886,-18.65892 8.42011,-33.35707 23.61337,-40.79044 18.60515,-9.10266 40.28928,-6.68985 57.67143,6.41714 12.4009,9.35099 13.1981,15.27784 3.5684,26.52795 -6.8752,8.03219 -14.36782,10.62824 -17.24391,5.97468 -1.82119,-2.94673 -16.2048,-9.25439 -21.21847,-9.30493 -4.85757,-0.0489 -10.15932,4.64308 -10.15932,8.99098 0,3.19861 15.40457,18.88641 31.86533,32.45126 24.49797,20.18808 28.30967,52.89414 8.59118,73.71566 -11.46825,12.10981 -33.75093,17.31093 -52.00562,12.13899 z"
     id="path36" /><ellipse
     style="fill:#0e2943;fill-opacity:1;stroke:#1669a5;stroke-width:0;stroke-opacity:1;paint-order:stroke fill markers"
     id="path39-0"
     cx="507.83621"
     cy="160.21606"
     rx="12.610616"
     ry="16.249033" /><path
     style="fill:#0e2943;fill-opacity:1;stroke:#1669a5;stroke-width:0;stroke-opacity:1;paint-order:stroke fill markers"
     d="m 435.54226,176.01444 c -8.9075,-5.94517 -8.9075,-22.03443 0,-27.9796 4.06964,-2.71622 7.41416,-2.42554 11.44512,0.99478 7.62568,6.47043 7.62568,19.51961 0,25.99005 -4.03096,3.4203 -7.37548,3.711 -11.44512,0.99477 z"
     id="path40" /><path
     style="fill:#0e2943;fill-opacity:1;stroke:#1669a5;stroke-width:0;stroke-opacity:1;paint-order:stroke fill markers"
     d="m 465.95998,229.8371 c -0.50636,-0.0631 -2.16359,-0.26432 -3.68272,-0.4472 -15.31199,-1.84342 -33.24241,-10.04077 -40.87271,-18.686 -2.1918,-2.48335 -4.45059,-6.2976 -5.53568,-9.34769 -1.16847,-3.28442 -0.95384,-6.39639 0.56785,-8.23349 2.09608,-2.53055 6.52096,-3.65176 10.51939,-2.66546 2.68538,0.66239 3.99712,1.89736 5.79656,5.45731 1.89833,3.75561 3.45553,5.92207 5.92574,8.24429 6.93266,6.51729 18.62347,10.33313 33.02651,10.77975 9.16172,0.28409 15.18469,-0.76594 22.79617,-3.97426 7.11638,-2.99965 14.46306,-8.24628 17.9242,-12.80057 0.9796,-1.28899 2.28657,-3.53886 2.90438,-4.9997 2.21739,-5.24307 4.82254,-7.07617 9.67438,-6.8073 7.66158,0.42458 10.11772,5.47554 6.47057,13.30648 -4.77327,10.24888 -13.97974,18.43118 -26.63051,23.66802 -10.76363,4.45565 -22.20423,6.75846 -33.10269,6.66306 -2.67341,-0.0234 -5.27505,-0.0941 -5.78144,-0.15724 z"
     id="path41" /><path
     style="fill:#0f2b43;fill-opacity:1;stroke:#1669a5;stroke-width:0;stroke-dasharray:none;stroke-opacity:1;paint-order:stroke fill markers"
     d="m 363.18155,269.39383 c -13.69479,-2.52323 -21.72548,-9.18929 -23.69749,-19.67062 -0.42036,-2.23424 -1.09533,-14.32728 -1.49991,-26.87341 -0.40461,-12.54613 -1.06607,-33.21676 -1.46993,-45.93477 -0.40386,-12.71799 -1.26308,-38.45083 -1.9094,-57.18409 -1.38005,-40.000864 -1.30337,-42.725082 1.34025,-47.619979 2.20405,-4.080987 7.15422,-8.570432 11.54631,-10.471662 7.09805,-3.072565 6.52962,-3.034236 88.45443,-5.964501 25.83508,-0.924072 40.809,-1.532623 101.27487,-4.115857 17.01419,-0.726878 32.96072,-1.149514 35.43674,-0.939173 7.43885,0.631925 11.24051,2.068761 15.88109,6.00222 6.45513,5.471516 6.99725,7.622211 7.95238,31.548335 0.42535,10.655611 1.26533,29.357627 1.86659,41.560037 2.05934,41.79384 3.29275,69.07199 4.05506,89.68215 0.67155,18.15608 0.62403,21.07245 -0.39726,24.37355 -2.67816,8.65665 -9.80016,15.14299 -19.29919,17.57669 -6.70486,1.71782 -22.29798,2.47874 -101.10452,4.93378 -16.81164,0.52372 -48.29892,1.64789 -69.97175,2.49814 -44.88126,1.76078 -42.32516,1.72917 -48.45827,0.59916 z m 45.14383,-12.80124 c 41.28557,-1.27545 134.45067,-4.59168 156.60898,-5.57452 13.67834,-0.6067 17.23054,-1.46012 20.71884,-4.9777 3.89592,-3.92861 3.87135,-2.93712 1.35927,-54.8458 -1.27834,-26.41513 -2.61678,-54.35526 -2.97434,-62.08917 -0.35753,-7.73393 -0.88235,-14.55626 -1.16626,-15.16075 -0.28389,-0.60449 -1.26257,-1.25804 -2.17485,-1.45232 -0.91226,-0.19428 -10.40476,0.0859 -21.09441,0.62255 -10.68968,0.53667 -27.059,1.27229 -36.37627,1.63469 -9.3173,0.36241 -35.50145,1.48289 -58.18704,2.48997 -22.68556,1.00708 -50.52694,2.12642 -61.86973,2.48741 -42.60462,1.35593 -51.40862,1.85316 -52.88495,2.98681 -1.22701,0.94221 -1.31701,1.75307 -0.91573,8.24926 0.24478,3.96238 0.76109,18.03181 1.14736,31.2654 0.38627,13.23359 1.05661,36.29472 1.48965,51.24694 0.94564,32.65162 1.29498,36.07892 3.98211,39.06823 2.46169,2.7385 5.86424,4.29392 11.45914,5.23836 0.20255,0.0342 18.59775,-0.50102 40.87823,-1.18936 z"
     id="path42" /><path
     style="fill:#1465a3;fill-opacity:1;stroke:#1669a5;stroke-width:2.94115;stroke-dasharray:none;stroke-opacity:1;paint-order:stroke fill markers"
     d="m 349.23793,84.000947 c -0.13045,-7.034999 3.15718,-13.135572 11.49026,-13.577495 11.44756,-0.607087 203.59893,-7.898616 203.59893,-7.898616 0,0 13.21233,0.452033 14.20039,8.67575 1.19267,9.926936 1.62565,30.427444 1.62565,30.427444 l -229.67971,10.60598 c 0,0 -1.10507,-21.198063 -1.23552,-28.233063 z"
     id="path45"
     sodipodi:nodetypes="zscsccz" /><ellipse
     style="fill:#dd452b;fill-opacity:1;stroke:#1631a5;stroke-width:0;stroke-dasharray:none;stroke-opacity:1;paint-order:stroke fill markers"
     id="path46"
     cx="369.09567"
     cy="89.400612"
     rx="9.8954983"
     ry="9.5759382" /><ellipse
     style="fill:#f1b02f;fill-opacity:1;stroke:#1631a5;stroke-width:0;stroke-dasharray:none;stroke-opacity:1;paint-order:stroke fill markers"
     id="path46-4"
     cx="403.63812"
     cy="88.57547"
     rx="9.8954983"
     ry="9.5759382" /><ellipse
     style="fill:#269f4a;fill-opacity:1;stroke:#1631a5;stroke-width:0;stroke-dasharray:none;stroke-opacity:1;paint-order:stroke fill markers"
     id="path46-4-8"
     cx="438.02991"
     cy="87.700996"
     rx="9.8954983"
     ry="9.5759382" /><path
     style="fill:#0e2a4a;fill-opacity:1;stroke:#0e2a4a;stroke-width:8.84279;stroke-linecap:round;stroke-dasharray:none;stroke-opacity:1;paint-order:stroke fill markers"
     d="m 450.07774,12.099286 0.9086,24.077758"
     id="path47" /><path
     style="fill:#0e2a4a;fill-opacity:1;stroke:#0e2a4a;stroke-width:8.84279;stroke-linecap:round;stroke-dasharray:none;stroke-opacity:1;paint-order:stroke fill markers"
     d="m 403.2851,19.36805 c 0,0 12.26605,10.448827 18.62622,20.443371"
     id="path48" /><path
     style="fill:#0e2a4a;fill-opacity:1;stroke:#0e2a4a;stroke-width:8.84279;stroke-linecap:round;stroke-dasharray:none;stroke-opacity:1;paint-order:stroke fill markers"
     d="m 487.78436,36.177044 c 0,0 12.72036,-16.354701 21.80633,-24.077758"
     id="path49" /><path
     style="fill:#0e2a4a;fill-opacity:1;stroke:#0e2a4a;stroke-width:11.7904;stroke-linecap:round;stroke-dasharray:none;stroke-opacity:1;paint-order:stroke fill markers"
     d="m 687.81199,125.21554 -19.08048,81.77349"
     id="path50" /><path
     style="fill:none;fill-opacity:1;stroke:#0e2a4a;stroke-width:11.7904;stroke-linecap:round;stroke-linejoin:round;stroke-dasharray:none;stroke-opacity:1;paint-order:stroke fill markers"
     d="m 658.28268,145.20461 -31.34651,21.80626 25.89495,21.35197"
     id="path51" /><path
     style="fill:none;fill-opacity:1;stroke:#0e2a4a;stroke-width:11.7904;stroke-linecap:round;stroke-linejoin:round;stroke-dasharray:none;stroke-opacity:1;paint-order:stroke fill markers"
     d="m 702.3495,144.75032 25.44064,21.35197 -30.89221,23.16915"
     id="path52" /></svg>
